<?xml version="1.0" standalone="no"?>
<!DOCTYPE svg PUBLIC "-//W3C//DTD SVG 20010904//EN"
 "http://www.w3.org/TR/2001/REC-SVG-20010904/DTD/svg10.dtd">
<svg version="1.0" xmlns="http://www.w3.org/2000/svg"
 width="64.000000pt" height="64.000000pt" viewBox="0 0 64.000000 64.000000"
 preserveAspectRatio="xMidYMid meet">
<g transform="translate(0.000000,64.000000) scale(0.100000,-0.100000)"
fill="#000000" stroke="none">
<path d="M30 471 l25 -7 0 -139 0 -139 -25 -7 c-14 -4 11 -7 60 -7 47 0 76 3
65 5 -42 11 -45 20 -45 164 l0 139 -52 -1 c-39 -1 -46 -3 -28 -8z"/>
<path d="M165 469 c39 -11 55 -34 55 -79 0 -38 -20 -65 -52 -71 -13 -3 -6 -17
33 -67 28 -35 62 -67 75 -72 14 -6 71 -9 127 -9 56 1 93 4 82 6 -42 11 -45 20
-45 164 l0 139 -52 -1 c-39 -1 -46 -3 -28 -8 l25 -7 0 -139 0 -140 -31 -3
c-27 -3 -39 5 -88 59 -31 34 -56 66 -56 70 0 4 14 21 30 37 32 33 36 51 19 84
-12 23 -67 48 -101 47 -19 -1 -18 -2 7 -10z"/>
<path d="M509 469 c51 -10 69 -23 88 -64 l14 -30 -5 40 c-3 22 -6 46 -6 53 0
8 -20 12 -67 11 -66 -1 -67 -1 -24 -10z"/>
<path d="M541 370 c-7 -23 -18 -32 -43 -37 l-33 -7 30 -6 c17 -3 34 -15 41
-28 18 -36 19 -34 20 39 0 38 -1 69 -2 69 -1 0 -7 -14 -13 -30z"/>
</g>
</svg>
